:SAMPLES-PER-SECOND 30
:FULLY-SPECIFIED
:DEGREES
92
root  3.96764 39.2894 3.24032 -70.4983 -85.2446 61.1893
RightUpLeg  -31.1174 -4.13659 -6.13411
RightLeg  80.0003 -0.520382 -5.55835
RightFoot  5.83656 -0.714559 4.99592
RightToes  -2.32832e-010 0 -3.6325e-017
Spine  15.2375 -4.58647 -8.88116
Spine1  0.328762 -6.77238 -0.236347
HEad  -15.9681 20.5388 -2.83135
LeftShoulder1  0.17955 1.53963 -0.789268
LeftArm  -11.4593 -9.94997 -67.4982
LeftForeArm  47.9287 -78.0285 -64.5202
LeftHand  -0.79419 -2.36303 12.0858
RightShoulder  1.34701 2.85522 14.3559
RightArm  51.3905 -56.5824 6.97382
RightForeArm  18.2411 33.8733 6.49084
RightHand  -0.544235 0.435811 -10.9239
LeftUpLeg  4.18084 7.31619 -4.80081
LeftLeg  17.2722 9.87938 3.74246
LeftFoot  -10.4564 0.112005 -6.37966
LeftToes  2.2737e-010 4.38529e-011 2.18788e-011
93
root  3.81822 39.3168 3.16415 -74.6288 -85.3285 66.0957
RightUpLeg  -24.512 -3.19081 -6.40699
RightLeg  66.6875 -1.74718 -5.09599
RightFoot  5.88818 -0.584035 4.09851
RightToes  -2.32832e-010 0 -3.6325e-017
Spine  14.2346 -3.84794 -8.81025
Spine1  -0.162639 -6.12419 1.22835
HEad  -15.7221 19.1738 -4.00671
LeftShoulder1  0.346132 0.677343 -4.17479
LeftArm  -8.96746 -5.77101 -66.2498
LeftForeArm  38.3235 -76.5754 -52.9318
LeftHand  -0.72925 -2.94332 10.3857
RightShoulder  1.34875 2.7749 14.685
RightArm  42.8304 -55.3403 12.4852
RightForeArm  20.2631 36.7746 7.15258
RightHand  -0.595328 0.728872 -11.3926
LeftUpLeg  3.61974 7.23683 -4.72236
LeftLeg  17.2421 10.2518 3.61874
LeftFoot  -10.1301 0.132517 -6.79083
LeftToes  2.2737e-010 4.38529e-011 2.18788e-011
94
root  3.6944 39.3892 3.00297 -66.1935 -85.0153 58.2697
RightUpLeg  -16.0964 -2.68954 -6.60856
RightLeg  51.8572 -3.26618 -4.80809
RightFoot  3.34625 -0.633623 5.19919
RightToes  -2.32832e-010 0 -3.6325e-017
Spine  13.2931 -3.11183 -9.43729
Spine1  -0.301776 -5.78262 4.2408
HEad  -14.9806 17.227 -5.2448
LeftShoulder1  0.752549 -0.990121 -9.25474
LeftArm  -5.56436 -0.37433 -63.7256
LeftForeArm  22.1092 -71.6783 -35.1841
LeftHand  -0.727727 -3.54891 9.7085
RightShoulder  1.33125 2.47921 15.542
RightArm  32.406 -52.3637 20.2323
RightForeArm  20.1109 39.0093 7.81028
RightHand  -0.653702 0.850326 -12.2616
LeftUpLeg  3.23759 6.57866 -4.63571
LeftLeg  16.8654 10.0354 3.66191
LeftFoot  -9.9363 0.147339 -7.19636
LeftToes  2.2737e-010 4.38529e-011 2.18788e-011
95
root  3.63423 39.5092 2.78271 -50.6222 -84.3819 42.8509
RightUpLeg  -7.06489 -2.33095 -6.06619
RightLeg  37.5693 -5.32908 -4.62067
RightFoot  -2.68662 -0.607039 7.77396
RightToes  -2.32832e-010 0 -3.6325e-017
Spine  12.636 -2.38474 -9.72017
Spine1  0.109006 -5.43465 7.59283
HEad  -14.0694 14.4361 -6.5229
LeftShoulder1  1.38315 -2.89565 -14.7557
LeftArm  -0.611525 3.98764 -60.5413
LeftForeArm  8.45979 -61.1314 -20.5359
LeftHand  -0.94211 -4.37037 11.3978
RightShoulder  1.35392 2.08618 17.7033
RightArm  21.0988 -46.7778 28.488
RightForeArm  17.2601 40.6574 8.50428
RightHand  -0.774101 1.25965 -13.6137
LeftUpLeg  3.07915 4.96407 -4.40711
LeftLeg  16.7493 9.94643 4.13874
LeftFoot  -9.92636 0.15632 -7.95372
LeftToes  2.2737e-010 4.38529e-011 2.18788e-011
96
root  3.6866 39.6535 2.52435 -30.786 -84.2664 23.4693
RightUpLeg  -0.559711 -1.3924 -3.49459
RightLeg  25.9486 -8.53062 -4.66359
RightFoot  -7.90863 -0.310523 8.25087
RightToes  -2.32832e-010 0 -3.6325e-017
Spine  11.9335 -1.78385 -7.62499
Spine1  0.440954 -4.64021 9.57713
HEad  -13.0859 11.3795 -8.21381
LeftShoulder1  2.0267 -4.41791 -19.1004
LeftArm  7.16461 6.50155 -57.927
LeftForeArm  -1.08858 -45.1955 -11.2828
LeftHand  -1.41789 -4.70185 16.5297
RightShoulder  1.38174 1.71784 20.1312
RightArm  11.1907 -38.0914 36.3726
RightForeArm  15.4968 42.2953 9.15404
RightHand  -1.00572 2.10137 -15.6775
LeftUpLeg  0.749213 2.37289 -2.83629
LeftLeg  19.8244 10.8442 5.06431
LeftFoot  -8.63767 0.287407 -9.78493
LeftToes  2.2737e-010 4.38529e-011 2.18788e-011
97
root  3.8794 39.7178 2.26641 0.701675 -84.7518 -6.92847
RightUpLeg  1.6181 -0.0862363 1.05871
RightLeg  18.868 -12.0386 -4.9326
RightFoot  -8.84539 -0.181441 5.78813
RightToes  -2.32832e-010 0 -3.6325e-017
Spine  11.4798 -1.29945 -2.83996
Spine1  0.0617233 -3.46477 10.3562
HEad  -12.3479 9.16234 -10.6608
LeftShoulder1  2.50439 -5.46501 -21.5939
LeftArm  16.8912 10.157 -56.0973
LeftForeArm  -9.58081 -31.3434 -7.25698
LeftHand  -1.73977 -3.61552 22.5035
RightShoulder  1.28851 1.3254 20.3583
RightArm  5.32328 -26.8768 44.1241
RightForeArm  17.9938 45.5306 10.1214
RightHand  -1.27496 2.79176 -18.2023
LeftUpLeg  -5.78183 1.5547 1.09461
LeftLeg  28.5616 10.1868 6.21758
LeftFoot  -5.32828 0.739116 -13.2275
LeftToes  2.2737e-010 4.38529e-011 2.18788e-011
98
root  4.12902 39.5413 2.04024 36.5959 -84.4032 -42.2797
RightUpLeg  1.23057 -0.497121 5.33436
RightLeg  16.8833 -12.2455 -5.2899
RightFoot  -7.94204 -0.167138 3.77726
RightToes  -2.32832e-010 0 -3.6325e-017
Spine  12.3761 -0.691494 2.0137
Spine1  -0.79465 -2.24013 11.1661
HEad  -12.537 7.77805 -13.1858
LeftShoulder1  2.75029 -6.07713 -22.4187
LeftArm  21.7685 18.1448 -54.1849
LeftForeArm  -14.4943 -28.072 -6.77694
LeftHand  -1.73609 -2.54561 25.2702
RightShoulder  1.02814 0.762402 17.5485
RightArm  3.35036 -15.185 51.7052
RightForeArm  22.6713 53.0217 13.1774
RightHand  -1.35464 2.86789 -19.1234
LeftUpLeg  -14.7965 2.92059 5.66094
LeftLeg  42.1973 7.02456 7.13255
LeftFoot  -2.49686 1.38572 -17.7027
LeftToes  2.2737e-010 4.38529e-011 2.18788e-011
99
root  4.32221 39.3845 1.81538 52.6987 -83.6847 -59.5306
RightUpLeg  2.21125 -1.73875 7.28167
RightLeg  16.3087 -10.2709 -4.90765
RightFoot  -7.44109 -0.176383 3.68875
RightToes  -2.32832e-010 0 -3.6325e-017
Spine  14.718 0.108267 4.39546
Spine1  -1.10999 -1.00058 11.621
HEad  -13.6532 5.93938 -14.0166
LeftShoulder1  2.69982 -6.13043 -21.6771
LeftArm  19.4276 29.1841 -51.5831
LeftForeArm  -11.5942 -34.6637 -8.45718
LeftHand  -1.69957 -2.67802 24.3886
RightShoulder  0.733776 0.0520019 13.8014
RightArm  2.39618 -5.24067 57.2684
RightForeArm  28.4408 65.1682 22.5827
RightHand  -1.12673 2.34081 -16.9812
LeftUpLeg  -21.903 3.90996 8.49968
LeftLeg  56.2853 3.92916 6.81756
LeftFoot  -2.89479 1.52875 -20.3138
LeftToes  2.2737e-010 4.38529e-011 2.18788e-011
100
root  4.43356 39.3884 1.56806 53.8523 -83.7393 -62.5847
RightUpLeg  4.56029 -2.90236 7.38228
RightLeg  15.2964 -8.52759 -4.18381
RightFoot  -7.47219 -0.175064 3.67987
RightToes  -2.32832e-010 0 -3.6325e-017
Spine  16.8069 1.04752 5.18631
Spine1  -0.507867 0.4883 10.2831
HEad  -14.4904 2.89874 -12.1187
LeftShoulder1  2.40418 -5.77015 -19.4287
LeftArm  19.3397 39.3459 -48.1287
LeftForeArm  -7.13146 -44.4075 -11.4397
LeftHand  -1.53581 -2.95755 21.3857
RightShoulder  0.532027 -0.610109 11.3439
RightArm  -0.116421 1.98875 58.993
RightForeArm  49.4693 76.8618 50.8835
RightHand  -0.821104 1.45578 -14.0493
LeftUpLeg  -26.6585 4.22541 9.18486
LeftLeg  69.384 1.69567 5.86338
LeftFoot  -6.52801 0.869682 -19.3671
LeftToes  2.2737e-010 4.38529e-011 2.18788e-011
101
root  4.44479 39.4197 1.36037 52.7139 -83.7336 -62.2249
RightUpLeg  5.68705 -3.39009 7.51511
RightLeg  14.6138 -8.24065 -3.84044
RightFoot  -7.34133 -0.14684 2.77722
RightToes  -2.32832e-010 0 -3.6325e-017
Spine  17.2468 2.0479 6.48536
Spine1  0.0737549 2.26725 7.54719
HEad  -14.0167 -0.700132 -8.68362
LeftShoulder1  2.1065 -5.58265 -16.4836
LeftArm  23.4808 46.964 -43.5915
LeftForeArm  -2.76617 -51.4976 -14.3542
LeftHand  -1.33386 -2.98392 18.6242
RightShoulder  0.397612 -1.2043 10.1202
RightArm  -4.35462 6.65778 57.6008
RightForeArm  106.574 78.8169 112.816
RightHand  -0.618575 0.291326 -12.7316
LeftUpLeg  -30.8121 4.23453 9.09308
LeftLeg  80.7062 0.364114 4.89446
LeftFoot  -9.7437 0.291965 -17.0313
LeftToes  2.2737e-010 4.38529e-011 2.18788e-011
102
root  4.37579 39.3701 1.22873 53.9427 -83.2726 -62.9255
RightUpLeg  4.96026 -3.2856 8.18807
RightLeg  15.0292 -8.64954 -3.81448
RightFoot  -7.25234 -0.133935 2.37226
RightToes  -2.32832e-010 0 -3.6325e-017
Spine  16.5926 3.02406 8.15939
Spine1  -0.0925283 3.9254 5.34661
HEad  -12.5764 -3.8361 -5.86495
LeftShoulder1  1.95924 -5.87027 -13.9811
LeftArm  28.8275 52.6941 -38.5096
LeftForeArm  1.29527 -55.6766 -16.545
LeftHand  -1.26647 -3.10126 17.4648
RightShoulder  0.248276 -1.97317 8.91223
RightArm  -8.3662 9.06098 55.4655
RightForeArm  135.64 72.9757 143.349
RightHand  -0.493542 -0.984147 -12.9714
LeftUpLeg  -34.5151 4.00577 9.17165
LeftLeg  88.8451 -0.32553 3.86317
LeftFoot  -10.0066 0.249601 -16.2087
LeftToes  2.2737e-010 4.38529e-011 2.18788e-011
